<?xml version="1.0" encoding="UTF-8" standalone="no"?>
<svg
   viewBox="0 0 671.47652 212.72999"
   version="1.1"
   id="svg62"
   sodipodi:docname="logo.svg"
   inkscape:version="1.2.1 (9c6d41e, 2022-07-14)"
   width="671.4765"
   height="212.73"
   xmlns:inkscape="http://www.inkscape.org/namespaces/inkscape"
   xmlns:sodipodi="http://sodipodi.sourceforge.net/DTD/sodipodi-0.dtd"
   xmlns="http://www.w3.org/2000/svg"
   xmlns:svg="http://www.w3.org/2000/svg">
  <sodipodi:namedview
     id="namedview64"
     pagecolor="#ffffff"
     bordercolor="#666666"
     borderopacity="1.0"
     inkscape:showpageshadow="2"
     inkscape:pageopacity="0.0"
     inkscape:pagecheckerboard="0"
     inkscape:deskcolor="#d1d1d1"
     showgrid="false"
     inkscape:zoom="1.0707275"
     inkscape:cx="345.09247"
     inkscape:cy="148.96414"
     inkscape:window-width="1920"
     inkscape:window-height="1048"
     inkscape:window-x="1920"
     inkscape:window-y="0"
     inkscape:window-maximized="1"
     inkscape:current-layer="svg62" />
  <defs
     id="defs4">
    <style
       id="style2">.cls-1{fill:#243e90;}.cls-2{fill:#4396d2;}.cls-3{fill:#2b78bc;}</style>
  </defs>
  <path
     class="cls-1"
     d="m 300.17648,64.428778 h 19.6 l 23.71,49.780002 V 64.428778 h 12.59 v 63.250002 h -18.63 l -24.5,-52.490002 v 52.490002 h -12.77 z"
     id="path6" />
  <path
     class="cls-1"
     d="m 378.03648,108.86878 c 0,2.89 0,11.81 9,11.81 3.23,0 6.47,-1.22 7.69,-6.12 h 11.82 a 14.84,14.84 0 0 1 -4.2,9.62 c -3.24,3.41 -9,5.16 -15.49,5.16 -3.76,0 -10.94,-0.7 -15.57,-5.51 -4,-4.2 -5.69,-10.15 -5.69,-17.23 0,-7.080002 1.75,-15.750002 9.19,-20.910002 a 22.1,22.1 0 0 1 12.42,-3.68 c 6.3,0 13.82,2.45 17.85,10.68 3,6 2.8,12.510002 2.62,16.180002 z m 16.45,-8.13 c 0,-2.000002 -0.17,-9.890002 -7.7,-9.890002 -5.68,0 -8,4.72 -8.31,9.890002 z"
     id="path8" />
  <path
     class="cls-1"
     d="m 428.95648,83.498778 v 26.330002 c 0,3.85 0,9.72 6.91,9.72 8.32,0 8.32,-6.22 8.32,-13.74 V 83.498778 h 13.29 v 29.130002 c 0.18,9.54 0.27,10.68 0.27,11.81 0,1.13 0.17,2 0.35,3.24 h -12.6 l -0.44,-5.86 c -1.31,1.92 -4.64,7 -13,7 -5.95,0 -10.85,-2.71 -13.3,-5.95 -2.89,-3.59 -2.89,-9.71 -2.89,-11.9 V 83.498778 Z"
     id="path10" />
  <path
     class="cls-1"
     d="m 495.71648,127.11878 a 40.07,40.07 0 0 1 -10.07,1.4 c -13,0 -13,-8.22 -13,-11.9 V 92.338778 h -8.47 v -8.58 h 8.49 v -8.64 l 12.86,-4.72 v 13.38 h 10.5 v 8.58 h -10.55 v 19.940002 c 0.09,4 0.09,6.57 5.86,6.57 a 31.84,31.84 0 0 0 4.38,-0.27 z"
     id="path12" />
  <path
     class="cls-1"
     d="m 522.83648,82.448778 c 16,0 22.92,10.85 22.92,23.180002 0,12.33 -7.17,23.63 -23.19,23.63 -12.59,0 -22.57,-7.79 -22.57,-23.28 0,-10.670002 5.43,-23.530002 22.84,-23.530002 z m 0.17,37.800002 c 5.69,0 9.54,-3.42 9.54,-15.14 0,-5.860002 -1.14,-14.000002 -9.71,-14.000002 -9.45,0 -9.54,10.940002 -9.54,15.000002 0,9.85 3.33,14.14 9.71,14.14 z"
     id="path14" />
  <path
     class="cls-1"
     d="m 555.46648,94.348778 c 0,-2.1 -0.35,-8.49 -0.61,-11 h 12.16 l 0.26,8.48 c 1.66,-3.76 4.55,-9.1 15,-8.57 v 11.63 c -13.12,-1.22 -13.91,5.520002 -13.91,11.000002 v 21.78 h -13 z"
     id="path16" />
  <path
     class="cls-1"
     d="m 611.10648,99.118778 c -0.17,-1.57 -0.7,-8.14 -5.68,-8.14 -6.13,0 -6.83,9.280002 -6.83,14.090002 0,2.45 0.26,10.32 3.24,13.56 a 4.49,4.49 0 0 0 3.5,1.49 c 1.4,0 5.42,-0.61 5.95,-8.49 h 12.77 c -0.17,3.41 -0.61,8.75 -5.69,13 -3.15,2.71 -7.08,4.11 -12.59,4.11 -5.87,0 -11,-1.31 -15.05,-5.86 -3.85,-4.46 -5.6,-10.33 -5.6,-17.41 0,-20.120002 14.78,-22.920002 20.65,-22.920002 8.22,0 17.93,4.54 18,16.53 z"
     id="path18" />
  <path
     class="cls-1"
     d="m 630.09648,64.518778 h 12.86 v 25 c 1.49,-2.1 4.72,-6.65 12.77,-6.65 a 15.9,15.9 0 0 1 12.86,6 c 1.58,2.18 2.89,6.21 2.89,12.000002 v 26.86 h -12.86 v -26.47 c 0,-2.540002 0,-9.620002 -7.26,-9.620002 -3.68,0 -8.31,2.1 -8.31,9.000002 l 0.08,27 h -13 z"
     id="path20" />
  <circle
     class="cls-2"
     cx="49.080002"
     cy="31.209999"
     r="7.9499998"
     id="circle22" />
  <circle
     class="cls-2"
     cx="43.860001"
     cy="120.52"
     r="7.9499998"
     id="circle24" />
  <circle
     class="cls-3"
     cx="55.660004"
     cy="79.75"
     r="7.9499998"
     id="circle26" />
  <circle
     class="cls-3"
     cx="13.090003"
     cy="108.01"
     r="7.9499998"
     id="circle28" />
  <circle
     class="cls-3"
     cx="202.42001"
     cy="123.9"
     r="7.9499998"
     id="circle30" />
  <circle
     class="cls-3"
     cx="180.29001"
     cy="204.78"
     r="7.9499998"
     id="circle32" />
  <circle
     class="cls-2"
     cx="188.23"
     cy="85.25"
     r="7.9499998"
     id="circle34" />
  <circle
     class="cls-3"
     cx="111.5"
     cy="157.53"
     r="7.9499998"
     id="circle36" />
  <circle
     class="cls-3"
     cx="133.10001"
     cy="72.989998"
     r="5.6199999"
     id="circle38" />
  <circle
     class="cls-3"
     cx="125.10001"
     cy="128.46001"
     r="5.6199999"
     id="circle40" />
  <circle
     class="cls-3"
     cx="180.29001"
     cy="17.700001"
     r="7.9499998"
     id="circle42" />
  <circle
     class="cls-3"
     cx="241.92999"
     cy="133.84"
     r="12.82"
     id="circle44" />
  <circle
     class="cls-2"
     cx="233.82001"
     cy="90.129997"
     r="12.82"
     id="circle46" />
  <circle
     class="cls-2"
     cx="152.72"
     cy="170.36"
     r="12.82"
     id="circle48" />
  <circle
     class="cls-3"
     cx="210.36002"
     cy="49.900002"
     r="12.82"
     id="circle50" />
  <circle
     class="cls-3"
     cx="117.93001"
     cy="12.82"
     r="12.82"
     id="circle52" />
  <circle
     class="cls-3"
     cx="15.61"
     cy="64.139999"
     r="15.61"
     id="circle54" />
  <circle
     class="cls-2"
     cx="207.04999"
     cy="165.48"
     r="18.82"
     id="circle56" />
  <path
     class="cls-1"
     d="m 168.44,107 v 0 c -14.62,-12 -14.8,-31.28 0,-43.53 v 0 a 18.39,18.39 0 1 0 -24.12,0 v 0 c 10.62,9.24 14.06,21 9.54,31.49 a 10.36,10.36 0 0 1 -9.24,5.69 13.66,13.66 0 0 1 -5.9,-1.41 C 121.22,89.55 105.66,65.4 103.42,48.35 a 18.39,18.39 0 1 0 -30.4,15.13 v 0 c 14.81,12.89 15.66,30.58 0.4,43.2 l -0.12,0.09 a 3.22,3.22 0 0 1 -0.28,0.24 v 0 a 18.4,18.4 0 1 0 24.12,0 v 0 C 86.33,98.16 83.43,85.29 88.63,74.23 a 10.35,10.35 0 0 1 9.09,-5.43 13.05,13.05 0 0 1 5,1.22 c 17,10.26 33.07,37.25 35.3,52.66 A 18.39,18.39 0 1 0 168.44,107 Z"
     id="path58" />
</svg>
