<?xml version="1.0" encoding="UTF-8"?>
<svg id="Layer_1" data-name="Layer 1" xmlns="http://www.w3.org/2000/svg" viewBox="0 0 636.95 509.36">
  <defs>
    <style>
      .cls-1, .cls-2 {
        stroke-width: 0px;
      }

      .cls-2 {
        fill: #e9b857;
      }
    </style>
  </defs>
  <path class="cls-2" d="m457.25,234.22h.02c-42.85-35.08-43.36-91.7,0-127.58h-.02c11.37-9.88,18.56-24.44,18.56-40.68,0-29.77-24.14-53.91-53.91-53.91s-53.91,24.14-53.91,53.91c0,16.25,7.2,30.8,18.56,40.68h-.02c31.13,27.08,41.21,61.39,27.95,92.28-5.01,9.88-15.24,16.67-27.07,16.67-5.44,0-12.67-1.64-17.24-4.16-51.27-28.38-96.88-99.15-103.45-149.14-1.89-28.06-25.23-50.23-53.77-50.23s-53.91,24.14-53.91,53.91c0,16.25,7.2,30.8,18.56,40.68h-.02c43.41,37.77,45.91,89.61,1.17,126.59-.11.09-.22.19-.33.28-.29.23-.55.47-.84.71h.02c-11.37,9.88-18.56,24.44-18.56,40.68,0,29.77,24.14,53.91,53.91,53.91s53.91-24.14,53.91-53.91c0-16.25-7.2-30.8-18.56-40.68h.02c-31.69-25.95-40.2-63.67-24.94-96.08,5.14-9.48,15.14-15.93,26.68-15.93,4.66,0,10.77,1.69,14.74,3.57,49.91,30.09,96.9,109.18,103.45,154.34,2.63,27.32,25.64,48.69,53.65,48.69,29.77,0,53.91-24.14,53.91-53.91,0-16.25-7.2-30.8-18.56-40.68"/>
  <g>
    <path class="cls-1" d="m5.53,393.02h32.92l39.83,83.63v-83.63h21.17v106.27h-31.31l-41.16-88.19v88.19H5.53v-106.27Z"/>
    <path class="cls-1" d="m136.35,467.69c0,4.85,0,19.84,15.14,19.84,5.44,0,10.88-2.06,12.93-10.29h19.84c-.29,3.53-1.03,9.85-7.06,16.17-5.44,5.73-15.14,8.67-26.02,8.67-6.32,0-18.37-1.18-26.16-9.26-6.76-7.06-9.55-17.05-9.55-28.96s2.94-26.46,15.43-35.13c5.73-3.82,12.79-6.17,20.87-6.17,10.58,0,23.22,4.12,29.98,17.93,5,10.14,4.7,21.02,4.41,27.19h-49.83Zm27.63-13.67c0-3.38-.29-16.61-12.93-16.61-9.55,0-13.52,7.94-13.96,16.61h26.9Z"/>
    <path class="cls-1" d="m221.9,425.06v44.24c0,6.47,0,16.32,11.61,16.32,13.96,0,13.96-10.44,13.96-23.08v-37.48h22.34v48.95c.29,16.02.44,17.93.44,19.84.15,2.06.29,3.38.59,5.44h-21.17l-.73-9.85c-2.2,3.23-7.79,11.76-21.9,11.76-9.99,0-18.23-4.56-22.34-9.99-4.85-6.03-4.85-16.32-4.85-19.99v-46.15h22.05Z"/>
    <path class="cls-1" d="m334.04,498.26c-7.06,1.91-13.38,2.35-16.9,2.35-21.9,0-21.9-13.82-21.9-19.99v-40.71h-14.26v-14.4h14.26v-14.55l21.61-7.94v22.49h17.64v14.4h-17.64v33.51c.15,6.76.15,11.02,9.85,11.02,3.23,0,4.7-.15,7.35-.44v14.26Z"/>
    <path class="cls-1" d="m379.61,423.3c26.9,0,38.51,18.23,38.51,38.95s-12.05,39.69-38.95,39.69c-21.17,0-37.92-13.08-37.92-39.1,0-17.93,9.11-39.54,38.36-39.54Zm.29,63.5c9.55,0,16.02-5.73,16.02-25.43,0-9.85-1.91-23.52-16.32-23.52-15.87,0-16.02,18.37-16.02,25.13,0,16.61,5.59,23.81,16.32,23.81Z"/>
    <path class="cls-1" d="m434.43,443.29c0-3.53-.59-14.26-1.03-18.52h20.43l.44,14.26c2.79-6.32,7.64-15.29,25.28-14.4v19.55c-22.05-2.06-23.37,9.26-23.37,18.52v36.6h-21.75v-56Z"/>
    <path class="cls-1" d="m527.92,451.37c-.29-2.65-1.18-13.67-9.55-13.67-10.29,0-11.47,15.58-11.47,23.66,0,4.12.44,17.34,5.44,22.78,2.06,2.2,4.26,2.5,5.88,2.5,2.35,0,9.11-1.03,9.99-14.26h21.46c-.29,5.73-1.03,14.7-9.55,21.9-5.29,4.56-11.91,6.91-21.17,6.91-9.85,0-18.52-2.2-25.28-9.85-6.47-7.5-9.41-17.34-9.41-29.25,0-33.81,24.84-38.51,34.69-38.51,13.82,0,30.13,7.64,30.28,27.78h-21.31Z"/>
    <path class="cls-1" d="m559.81,393.17h21.61v42.04c2.5-3.53,7.94-11.17,21.46-11.17,11.02,0,18.08,5.44,21.61,9.99,2.65,3.67,4.85,10.44,4.85,20.14v45.12h-21.61v-44.39c0-4.26,0-16.17-12.2-16.17-6.17,0-13.96,3.53-13.96,15.14l.15,45.42h-21.9v-106.12Z"/>
  </g>
</svg>